<?xml version="1.0" standalone="no"?>
<!DOCTYPE svg PUBLIC "-//W3C//DTD SVG 20010904//EN"
 "http://www.w3.org/TR/2001/REC-SVG-20010904/DTD/svg10.dtd">
<svg version="1.0" xmlns="http://www.w3.org/2000/svg"
 width="1280.000000pt" height="1280.000000pt" viewBox="0 0 1280.000000 1280.000000"
 preserveAspectRatio="xMidYMid meet">
<metadata>
Created by potrace 1.16, written by Peter Selinger 2001-2019
</metadata>
<g transform="translate(0.000000,1280.000000) scale(0.100000,-0.100000)"
fill="#000000" stroke="none">
<path d="M4143 9810 c-301 -46 -572 -262 -677 -541 -60 -159 -56 29 -56 -2869
0 -2383 2 -2659 16 -2728 67 -325 301 -572 629 -664 79 -22 90 -23 630 -23
611 0 621 1 775 68 244 106 418 309 492 573 22 78 23 85 26 904 l3 824 1097
-1096 c603 -602 1118 -1110 1145 -1127 72 -49 183 -98 272 -122 107 -29 301
-31 395 -5 215 59 396 229 467 439 l28 82 3 2845 c2 2613 1 2851 -14 2920 -64
292 -303 497 -610 526 -152 14 -347 -34 -497 -122 -75 -44 -180 -146 -1184
-1148 l-1102 -1100 -3 825 c-3 808 -4 825 -25 900 -88 313 -310 535 -619 621
-76 21 -96 22 -609 24 -291 1 -553 -1 -582 -6z"/>
</g>
</svg>
